<?xml version="1.0" encoding="utf-8"?>
<!-- Generator: Adobe Illustrator 24.3.0, SVG Export Plug-In . SVG Version: 6.00 Build 0)  -->
<svg version="1.1" id="Layer_1" xmlns="http://www.w3.org/2000/svg" xmlns:xlink="http://www.w3.org/1999/xlink" x="0px" y="0px"
	 viewBox="0 0 602.96 782.54" style="enable-background:new 0 0 602.96 782.54;" xml:space="preserve">
<style type="text/css">
	.st0{fill:url(#SVGID_1_);}
	.st1{fill:url(#SVGID_2_);}
	.st2{fill:#30CE84;}
	.st3{fill:#A3EB57;}
	.st4{fill:#203040;}
	.st5{fill:#10202D;}
	.st6{fill:#0364AC;}
	.st7{fill:#02B15D;}
	.st8{fill:#394241;}
	.st9{fill:url(#SVGID_3_);}
	.st10{fill:url(#SVGID_4_);}
	.st11{fill:url(#SVGID_5_);}
	.st12{fill:url(#SVGID_6_);}
	.st13{fill:#4CA456;}
	.st14{opacity:0.35;fill:#02B15D;}
	.st15{fill:#FFFFFF;}
	.st16{fill:url(#SVGID_7_);}
	.st17{fill:url(#SVGID_8_);}
	.st18{fill:url(#SVGID_9_);}
	.st19{opacity:0.59;clip-path:url(#SVGID_11_);fill:url(#SVGID_12_);}
	.st20{clip-path:url(#SVGID_11_);fill:url(#SVGID_13_);}
	.st21{clip-path:url(#SVGID_11_);fill:url(#SVGID_14_);}
	.st22{fill:url(#SVGID_15_);}
	.st23{fill:url(#SVGID_16_);}
	.st24{opacity:0.59;clip-path:url(#SVGID_18_);fill:url(#SVGID_19_);}
	.st25{clip-path:url(#SVGID_18_);fill:url(#SVGID_20_);}
	.st26{clip-path:url(#SVGID_18_);fill:url(#SVGID_21_);}
	.st27{fill:url(#SVGID_22_);}
	.st28{fill:url(#SVGID_23_);}
</style>
<g>
	<g>
		<polygon class="st3" points="305.07,0 202.64,0 0,405.28 102.43,405.28 102.43,405.28 179.76,405.28 230.98,302.85 153.65,302.85 
					"/>
		<polygon class="st7" points="190.65,302.85 139.43,405.28 339.09,405.28 339.09,302.85 		"/>
		<polygon class="st3" points="602.96,509.02 400.57,104.24 400.82,103.74 400.32,103.74 298.39,103.74 297.89,103.74 
			298.14,104.24 95.75,509.02 198.19,509.02 349.36,206.67 397.45,302.85 328.21,302.85 277,405.28 448.66,405.28 500.53,509.02 		
			"/>
	</g>
	<g>
		<g>
			<g>
				<g>
					<path class="st15" d="M86.19,661.32v-17.71l44.57-66.63h19.7v3.84l-43.17,62.79h23.98v-10.55l19.18-28.26v38.81h9.08v17.71
						h-9.08v21.1h-19.18v-21.1H86.19z"/>
					<path class="st15" d="M279.59,576.76l0.52,1.48l-10.33,26.64l-14.31,36.38h28.55l-6.86-17.19l10.33-26.64l32.98,85.15h-21.25
						l-7.82-21.69h-43.31l-8.85,21.69h-20.66l40.8-105.81H279.59z"/>
					<path class="st15" d="M385.47,664.42c2.85,0,5.59-0.33,8.23-1c2.63-0.66,5.13-1.61,7.49-2.84c2.36-1.23,4.55-2.69,6.57-4.39
						c2.02-1.7,3.81-3.6,5.39-5.72l13.65,11.8c-2.41,3.05-5.13,5.83-8.15,8.34c-3.03,2.51-6.3,4.65-9.81,6.42
						c-3.52,1.77-7.23,3.13-11.14,4.1c-3.91,0.96-7.98,1.44-12.21,1.44c-4.87,0-9.56-0.63-14.06-1.88s-8.72-3.04-12.65-5.35
						c-3.94-2.31-7.5-5.07-10.7-8.26c-3.2-3.2-5.95-6.76-8.26-10.7c-2.31-3.94-4.1-8.15-5.35-12.65c-1.25-4.5-1.88-9.19-1.88-14.06
						s0.63-9.55,1.88-14.06c1.25-4.5,3.04-8.72,5.35-12.65c2.31-3.94,5.07-7.5,8.26-10.7c3.2-3.2,6.76-5.95,10.7-8.26
						c3.93-2.31,8.15-4.1,12.65-5.35c4.5-1.25,9.19-1.88,14.06-1.88c4.23,0,8.3,0.48,12.21,1.44c3.91,0.96,7.62,2.32,11.14,4.1
						c3.52,1.77,6.79,3.9,9.81,6.38c3.03,2.48,5.74,5.25,8.15,8.3l-13.65,11.88c-1.58-2.11-3.37-4.03-5.39-5.75
						c-2.02-1.72-4.21-3.19-6.57-4.39c-2.36-1.21-4.86-2.14-7.49-2.8c-2.63-0.66-5.38-1-8.23-1c-4.77,0-9.27,0.91-13.5,2.73
						c-4.23,1.82-7.92,4.3-11.07,7.45c-3.15,3.15-5.63,6.82-7.45,11.03c-1.82,4.21-2.73,8.72-2.73,13.54c0,4.77,0.91,9.27,2.73,13.5
						c1.82,4.23,4.3,7.92,7.45,11.07c3.15,3.15,6.84,5.63,11.07,7.45C376.2,663.51,380.7,664.42,385.47,664.42z"/>
					<path class="st15" d="M502.13,576.76v19.7H458.3v23.61h43.83v19.18H458.3v23.61h43.83v19.7H438.6V576.76H502.13z"/>
					<path class="st15" d="M24.31,701.7h11.82v63.48H24.31V701.7z"/>
					<path class="st15" d="M91.51,701.7v11.86h-5.76h-11.6v51.62H61.72v-51.62H50.43h-5.76V701.7H91.51z"/>
					<path class="st15" d="M142.65,765.18c-8.5,0-14.96-4.41-19.39-13.24l9.87-5.89c2.89,5.43,6.17,8.15,9.83,8.15
						c1.92,0,3.6-0.56,5.05-1.68c1.3-1.21,1.95-2.52,1.95-3.94c0-1.39-0.46-2.79-1.37-4.21c-0.59-0.68-1.45-1.53-2.57-2.55
						c-1.12-1.02-2.52-2.23-4.21-3.65c-3.22-2.69-5.88-5.05-7.99-7.11c-2.11-2.05-3.65-3.8-4.63-5.25c-2.07-2.95-3.1-5.84-3.1-8.68
						c0-4.25,1.59-7.89,4.78-10.93c3.3-3.01,7.23-4.52,11.78-4.52c3.13,0,6.04,0.75,8.72,2.26c1.39,0.68,2.82,1.65,4.29,2.92
						c1.48,1.27,3.04,2.82,4.69,4.65l-8.72,7.57c-2.92-4.1-5.92-6.15-8.99-6.15c-1.71,0-2.92,0.37-3.63,1.11
						c-0.94,0.74-1.42,1.68-1.42,2.83c0,0.89,0.28,1.8,0.84,2.75c0.56,0.59,1.54,1.51,2.94,2.77c1.4,1.26,3.24,2.87,5.51,4.85
						c2.66,2.21,4.68,3.97,6.07,5.27c0.91,0.83,1.59,1.42,2.04,1.77c4.13,3.98,6.2,8.56,6.2,13.72c0,5.08-1.7,9.21-5.09,12.4
						C152.74,763.59,148.26,765.18,142.65,765.18z"/>
					<path class="st15" d="M197.68,765.18c-9,0-16.54-3.1-22.62-9.3c-6.02-6.43-9.03-13.86-9.03-22.27c0-5.96,1.42-11.33,4.25-16.12
						c2.72-4.84,6.55-8.69,11.51-11.55c4.93-2.83,10.23-4.25,15.89-4.25c8.44,0,15.76,3.1,21.96,9.3
						c6.26,6.32,9.39,13.86,9.39,22.62c0,8.97-3.03,16.48-9.08,22.53C213.84,762.17,206.41,765.18,197.68,765.18z M197.68,754.2
						c2.69,0,5.17-0.5,7.46-1.51c2.29-1,4.41-2.48,6.35-4.43c3.92-3.84,5.89-8.72,5.89-14.65c0-5.7-1.96-10.6-5.89-14.7
						c-3.78-3.96-8.49-5.93-14.12-5.93c-5.7,0-10.39,1.98-14.08,5.93c-3.78,3.81-5.67,8.71-5.67,14.7c0,6.73,2.45,12.09,7.35,16.07
						C188.66,752.7,192.9,754.2,197.68,754.2z"/>
					<path class="st15" d="M248.77,701.7v51.93h23.42v11.55h-35.2V701.7H248.77z"/>
					<path class="st15" d="M313.71,701.7h11.82v40.24c0,3.22-0.61,6.24-1.84,9.05c-1.22,2.82-2.89,5.28-5,7.37s-4.58,3.76-7.39,4.98
						c-2.82,1.22-5.84,1.84-9.05,1.84c-3.22,0-6.24-0.61-9.05-1.84c-2.82-1.22-5.28-2.88-7.37-4.98c-2.1-2.1-3.76-4.55-4.98-7.37
						c-1.23-2.82-1.84-5.84-1.84-9.05V701.7h11.82v40.51c0,1.59,0.3,3.08,0.91,4.47c0.6,1.39,1.42,2.6,2.46,3.63
						c1.03,1.03,2.24,1.85,3.63,2.44s2.86,0.88,4.43,0.88c1.59,0,3.08-0.29,4.47-0.88c1.39-0.59,2.6-1.4,3.63-2.44
						c1.03-1.03,1.85-2.24,2.46-3.63c0.6-1.39,0.91-2.88,0.91-4.47V701.7z"/>
					<path class="st15" d="M378.97,701.7v11.86h-5.75h-11.6v51.62h-12.44v-51.62h-11.29h-5.75V701.7H378.97z"/>
					<path class="st15" d="M384.15,701.7h11.82v63.48h-11.82V701.7z"/>
					<path class="st15" d="M436.17,765.18c-9,0-16.54-3.1-22.62-9.3c-6.02-6.43-9.03-13.86-9.03-22.27c0-5.96,1.42-11.33,4.25-16.12
						c2.72-4.84,6.55-8.69,11.51-11.55c4.93-2.83,10.23-4.25,15.89-4.25c8.44,0,15.76,3.1,21.96,9.3
						c6.26,6.32,9.39,13.86,9.39,22.62c0,8.97-3.03,16.48-9.08,22.53C452.33,762.17,444.91,765.18,436.17,765.18z M436.17,754.2
						c2.69,0,5.17-0.5,7.46-1.51c2.29-1,4.41-2.48,6.35-4.43c3.92-3.84,5.89-8.72,5.89-14.65c0-5.7-1.96-10.6-5.89-14.7
						c-3.78-3.96-8.49-5.93-14.12-5.93c-5.7,0-10.39,1.98-14.08,5.93c-3.78,3.81-5.67,8.71-5.67,14.7c0,6.73,2.45,12.09,7.35,16.07
						C427.15,752.7,431.39,754.2,436.17,754.2z"/>
					<path class="st15" d="M526.26,701.7v63.48h-11.55l-27.45-41.62v41.62h-11.78V701.7h11.51l27.14,41.92V701.7H526.26z"/>
					<path class="st15" d="M553.18,765.18c-8.5,0-14.96-4.41-19.39-13.24l9.87-5.89c2.89,5.43,6.17,8.15,9.83,8.15
						c1.92,0,3.6-0.56,5.05-1.68c1.3-1.21,1.95-2.52,1.95-3.94c0-1.39-0.46-2.79-1.37-4.21c-0.59-0.68-1.45-1.53-2.57-2.55
						c-1.12-1.02-2.52-2.23-4.21-3.65c-3.22-2.69-5.88-5.05-7.99-7.11c-2.11-2.05-3.65-3.8-4.63-5.25c-2.07-2.95-3.1-5.84-3.1-8.68
						c0-4.25,1.59-7.89,4.78-10.93c3.3-3.01,7.23-4.52,11.78-4.52c3.13,0,6.04,0.75,8.72,2.26c1.39,0.68,2.82,1.65,4.29,2.92
						s3.04,2.82,4.69,4.65l-8.72,7.57c-2.92-4.1-5.92-6.15-8.99-6.15c-1.71,0-2.92,0.37-3.63,1.11c-0.94,0.74-1.42,1.68-1.42,2.83
						c0,0.89,0.28,1.8,0.84,2.75c0.56,0.59,1.54,1.51,2.94,2.77c1.4,1.26,3.24,2.87,5.51,4.85c2.66,2.21,4.68,3.97,6.06,5.27
						c0.92,0.83,1.59,1.42,2.04,1.77c4.13,3.98,6.2,8.56,6.2,13.72c0,5.08-1.7,9.21-5.09,12.4
						C563.27,763.59,558.79,765.18,553.18,765.18z"/>
				</g>
			</g>
			<g>
				<g>
					<path class="st3" d="M213.04,643.46h-34.14v-13.65h34.14V643.46z"/>
				</g>
			</g>
		</g>
	</g>
</g>
</svg>
