<svg id="e1IkXvsQpof1" xmlns="http://www.w3.org/2000/svg" xmlns:xlink="http://www.w3.org/1999/xlink" viewBox="0 0 602.96 509.02" shape-rendering="geometricPrecision" text-rendering="geometricPrecision">
<style><![CDATA[
#e1IkXvsQpof8 {animation: e1IkXvsQpof8_c_o 3000ms linear infinite normal forwards}@keyframes e1IkXvsQpof8_c_o { 0% {opacity: 0} 30% {opacity: 0} 32% {opacity: 1} 84.333333% {opacity: 1} 84.666667% {opacity: 0} 100% {opacity: 0}} #e1IkXvsQpof9 {animation: e1IkXvsQpof9_c_o 3000ms linear infinite normal forwards}@keyframes e1IkXvsQpof9_c_o { 0% {opacity: 0} 32% {opacity: 0} 34% {opacity: 1} 84% {opacity: 1} 85% {opacity: 0} 100% {opacity: 0}} #e1IkXvsQpof10 {animation: e1IkXvsQpof10_c_o 3000ms linear infinite normal forwards}@keyframes e1IkXvsQpof10_c_o { 0% {opacity: 0} 32.333333% {opacity: 0} 34% {opacity: 1} 84% {opacity: 1} 84.666667% {opacity: 0} 100% {opacity: 0}} #e1IkXvsQpof11 {animation: e1IkXvsQpof11_c_o 3000ms linear infinite normal forwards}@keyframes e1IkXvsQpof11_c_o { 0% {opacity: 0} 36% {opacity: 0} 38% {opacity: 1} 83.333333% {opacity: 1} 84.333333% {opacity: 0} 100% {opacity: 0}} #e1IkXvsQpof12 {animation: e1IkXvsQpof12_c_o 3000ms linear infinite normal forwards}@keyframes e1IkXvsQpof12_c_o { 0% {opacity: 0} 38% {opacity: 0} 40% {opacity: 1} 82.333333% {opacity: 1} 83.666667% {opacity: 0} 100% {opacity: 0}} #e1IkXvsQpof13 {animation: e1IkXvsQpof13_c_o 3000ms linear infinite normal forwards}@keyframes e1IkXvsQpof13_c_o { 0% {opacity: 0} 40% {opacity: 0} 42% {opacity: 1} 81% {opacity: 1} 82.333333% {opacity: 0} 100% {opacity: 0}} #e1IkXvsQpof14 {animation: e1IkXvsQpof14_c_o 3000ms linear infinite normal forwards}@keyframes e1IkXvsQpof14_c_o { 0% {opacity: 0} 42% {opacity: 0} 44% {opacity: 1} 80% {opacity: 1} 81% {opacity: 0} 100% {opacity: 0}} #e1IkXvsQpof20 {animation: e1IkXvsQpof20_c_o 3000ms linear infinite normal forwards}@keyframes e1IkXvsQpof20_c_o { 0% {opacity: 0} 2% {opacity: 1} 98% {opacity: 1} 99.333333% {opacity: 0} 100% {opacity: 0}} #e1IkXvsQpof21 {animation: e1IkXvsQpof21_c_o 3000ms linear infinite normal forwards}@keyframes e1IkXvsQpof21_c_o { 0% {opacity: 0} 2% {opacity: 0} 4% {opacity: 1} 97.333333% {opacity: 1} 98.666667% {opacity: 0} 100% {opacity: 0}} #e1IkXvsQpof22 {animation: e1IkXvsQpof22_c_o 3000ms linear infinite normal forwards}@keyframes e1IkXvsQpof22_c_o { 0% {opacity: 0} 4% {opacity: 0} 6% {opacity: 1} 96.666667% {opacity: 1} 98% {opacity: 0} 100% {opacity: 0}} #e1IkXvsQpof23 {animation: e1IkXvsQpof23_c_o 3000ms linear infinite normal forwards}@keyframes e1IkXvsQpof23_c_o { 0% {opacity: 0} 8% {opacity: 0} 10% {opacity: 1} 95.333333% {opacity: 1} 97% {opacity: 0} 100% {opacity: 0}} #e1IkXvsQpof24 {animation: e1IkXvsQpof24_c_o 3000ms linear infinite normal forwards}@keyframes e1IkXvsQpof24_c_o { 0% {opacity: 0} 10% {opacity: 0} 12% {opacity: 1} 95% {opacity: 1} 96.666667% {opacity: 0} 100% {opacity: 0}} #e1IkXvsQpof25 {animation: e1IkXvsQpof25_c_o 3000ms linear infinite normal forwards}@keyframes e1IkXvsQpof25_c_o { 0% {opacity: 0} 12% {opacity: 0} 14% {opacity: 1} 94.333333% {opacity: 1} 96.333333% {opacity: 0} 100% {opacity: 0}} #e1IkXvsQpof26 {animation: e1IkXvsQpof26_c_o 3000ms linear infinite normal forwards}@keyframes e1IkXvsQpof26_c_o { 0% {opacity: 0} 14% {opacity: 0} 16% {opacity: 1} 93.666667% {opacity: 1} 96% {opacity: 0} 100% {opacity: 0}} #e1IkXvsQpof27 {animation: e1IkXvsQpof27_c_o 3000ms linear infinite normal forwards}@keyframes e1IkXvsQpof27_c_o { 0% {opacity: 0} 16% {opacity: 0} 18% {opacity: 1} 93% {opacity: 1} 95.666667% {opacity: 0} 100% {opacity: 0}} #e1IkXvsQpof28 {animation: e1IkXvsQpof28_c_o 3000ms linear infinite normal forwards}@keyframes e1IkXvsQpof28_c_o { 0% {opacity: 0} 18% {opacity: 0} 20% {opacity: 1} 92.333333% {opacity: 1} 95% {opacity: 0} 100% {opacity: 0}} #e1IkXvsQpof29 {animation: e1IkXvsQpof29_c_o 3000ms linear infinite normal forwards}@keyframes e1IkXvsQpof29_c_o { 0% {opacity: 0} 20% {opacity: 0} 22% {opacity: 1} 92% {opacity: 1} 94.666667% {opacity: 0} 100% {opacity: 0}} #e1IkXvsQpof30 {animation: e1IkXvsQpof30_c_o 3000ms linear infinite normal forwards}@keyframes e1IkXvsQpof30_c_o { 0% {opacity: 0} 22% {opacity: 0} 24% {opacity: 1} 91% {opacity: 1} 94.333333% {opacity: 0} 100% {opacity: 0}} #e1IkXvsQpof31 {animation: e1IkXvsQpof31_c_o 3000ms linear infinite normal forwards}@keyframes e1IkXvsQpof31_c_o { 0% {opacity: 0} 24% {opacity: 0} 26% {opacity: 1} 90% {opacity: 1} 93.333333% {opacity: 0} 100% {opacity: 0}} #e1IkXvsQpof32 {animation: e1IkXvsQpof32_c_o 3000ms linear infinite normal forwards}@keyframes e1IkXvsQpof32_c_o { 0% {opacity: 0} 26% {opacity: 0} 28% {opacity: 1} 89.333333% {opacity: 1} 92.333333% {opacity: 0} 100% {opacity: 0}} #e1IkXvsQpof33 {animation: e1IkXvsQpof33_c_o 3000ms linear infinite normal forwards}@keyframes e1IkXvsQpof33_c_o { 0% {opacity: 0} 28% {opacity: 0} 30% {opacity: 1} 88.333333% {opacity: 1} 91.333333% {opacity: 0} 100% {opacity: 0}} #e1IkXvsQpof34 {animation: e1IkXvsQpof34_c_o 3000ms linear infinite normal forwards}@keyframes e1IkXvsQpof34_c_o { 0% {opacity: 0} 30% {opacity: 0} 32% {opacity: 1} 87.333333% {opacity: 1} 91.666667% {opacity: 0} 100% {opacity: 0}} #e1IkXvsQpof35 {animation: e1IkXvsQpof35_c_o 3000ms linear infinite normal forwards}@keyframes e1IkXvsQpof35_c_o { 0% {opacity: 0} 32% {opacity: 0} 34% {opacity: 1} 86.666667% {opacity: 1} 90.333333% {opacity: 0} 100% {opacity: 0}} #e1IkXvsQpof36 {animation: e1IkXvsQpof36_c_o 3000ms linear infinite normal forwards}@keyframes e1IkXvsQpof36_c_o { 0% {opacity: 0} 34% {opacity: 0} 36% {opacity: 1} 85.666667% {opacity: 1} 89.333333% {opacity: 0} 100% {opacity: 0}} #e1IkXvsQpof37 {animation: e1IkXvsQpof37_c_o 3000ms linear infinite normal forwards}@keyframes e1IkXvsQpof37_c_o { 0% {opacity: 0} 36% {opacity: 0} 38% {opacity: 1} 85% {opacity: 1} 88.666667% {opacity: 0} 100% {opacity: 0}} #e1IkXvsQpof38 {animation: e1IkXvsQpof38_c_o 3000ms linear infinite normal forwards}@keyframes e1IkXvsQpof38_c_o { 0% {opacity: 0} 38% {opacity: 0} 40% {opacity: 1} 84.333333% {opacity: 1} 88% {opacity: 0} 100% {opacity: 0}} #e1IkXvsQpof39 {animation: e1IkXvsQpof39_c_o 3000ms linear infinite normal forwards}@keyframes e1IkXvsQpof39_c_o { 0% {opacity: 0} 40% {opacity: 0} 42% {opacity: 1} 83.333333% {opacity: 1} 87% {opacity: 0} 100% {opacity: 0}} #e1IkXvsQpof40 {animation: e1IkXvsQpof40_c_o 3000ms linear infinite normal forwards}@keyframes e1IkXvsQpof40_c_o { 0% {opacity: 0} 42% {opacity: 0} 44% {opacity: 1} 82.666667% {opacity: 1} 86% {opacity: 0} 100% {opacity: 0}} #e1IkXvsQpof41 {animation: e1IkXvsQpof41_c_o 3000ms linear infinite normal forwards}@keyframes e1IkXvsQpof41_c_o { 0% {opacity: 0} 6% {opacity: 0} 8% {opacity: 1} 96.333333% {opacity: 1} 97.333333% {opacity: 0} 100% {opacity: 0}}
]]></style>
<g><g><polygon points="142.697242,302.85 142.697242,302.85 92.592242,404.864723 101.304436,404.864723 102.43,404.864723 179.76,405.28 230.98,302.85 142.697242,302.85" transform="translate(9.837758 0.415277)" fill="#a3eb57"/><path d="M305.07,0h-102.43L0,405.28h102.43v0v0l51.22-102.43v0Z" fill="#a3eb57"/><g transform="translate(0 0.000001)"><polygon id="e1IkXvsQpof8" points="314.727861,311.815448 301.48,320.273547 319.503448,320.273547 328.21,303.265276" opacity="0" fill="#02b15d"/><polygon id="e1IkXvsQpof9" points="297.89,303.265277 281.929435,330.280513 301.48,356.207001 328.21,303.265276" opacity="0" fill="#02b15d"/><polygon id="e1IkXvsQpof10" points="190.650001,303.265277 261.636987,379.642163 301.48,356.207001 328.21,303.265276" opacity="0" fill="#02b15d"/><polygon id="e1IkXvsQpof11" points="190.650001,303.265277 171.06226,342.327967 261.636987,379.642163 282.927306,393.324119 328.21,303.265276" opacity="0" fill="#02b15d"/><polygon id="e1IkXvsQpof12" points="190.650001,303.265277 171.06226,342.327967 164.011064,372.492847 249.636131,405.279999 277,405.279999 328.21,303.265276" opacity="0" fill="#02b15d"/><polygon id="e1IkXvsQpof13" points="190.650001,303.265277 145.712498,392.90906 164.011064,372.492847 249.636131,405.279999 277,405.279999 328.21,303.265276" opacity="0" fill="#02b15d"/><polygon id="e1IkXvsQpof14" points="190.650001,303.265277 145.712498,392.90906 139.468159,405.28 249.636131,405.279999 277,405.279999 328.21,303.265276" opacity="0" fill="#02b15d"/></g><polygon points="400.57,104.24 400.82,103.74 400.32,103.74 298.39,103.74 297.89,103.74 298.14,104.24 95.75,509.02 198.19,509.02 349.36,206.67" fill="#a3eb57"/><g transform="translate(.000001 0.000001)"><path id="e1IkXvsQpof20" d="M400.57,104.24l.25-.5-.5-.000001L349.36,206.67l48.089999-22.107839" opacity="0" fill="#a3eb57"/><path id="e1IkXvsQpof21" d="M400.82,104.24L349.36,206.67l83.228866-38.433157L400.82,104.24Z" opacity="0" fill="#a3eb57"/><path id="e1IkXvsQpof22" d="M400.82,104.24L349.36,206.67l105.798671,6.764387L400.82,104.24Z" opacity="0" fill="#a3eb57"/><path id="e1IkXvsQpof23" d="M400.82,104.24L349.36,206.67l31.866436,63.733862l73.932235-56.969475L400.82,104.24Z" opacity="0" fill="#a3eb57"/><path id="e1IkXvsQpof24" d="M400.82,104.24L349.36,206.67l31.866436,63.733862l94.147908-16.481392L400.82,104.24Z" opacity="0" fill="#a3eb57"/><path id="e1IkXvsQpof25" d="M400.82,104.24L349.36,206.67l48.089999,96.179999l77.924345-48.927529L400.82,104.24Z" opacity="0" fill="#a3eb57"/><path id="e1IkXvsQpof26" d="M400.82,104.24L349.36,206.67l48.089999,96.179999l102.45772.000001L400.82,104.24Z" opacity="0" fill="#a3eb57"/><path id="e1IkXvsQpof27" d="M400.82,104.24L349.36,206.67l48.089999,96.179999l57.708672,51.630277L499.907719,302.85L400.82,104.24Z" opacity="0" fill="#a3eb57"/><path id="e1IkXvsQpof28" d="M400.82,104.24L349.36,206.67l48.089999,96.179999-26.677733,61.400827l84.386405-9.77055l75.404046,9.77055L499.907719,302.85L400.82,104.24Z" opacity="0" fill="#a3eb57"/><path id="e1IkXvsQpof29" d="M400.82,104.24L349.36,206.67l48.089999,96.179999-69.24.415277l42.562267,60.98555l84.386405-9.77055L476.16,392.90906l54.402717-28.658234L499.907719,302.85L400.82,104.24Z" opacity="0" fill="#a3eb57"/><path id="e1IkXvsQpof30" d="M400.82,104.24L349.36,206.67l48.089999,96.179999-69.24.415277l42.562267,60.98555l84.386405-9.77055L476.16,392.90906l54.402717-28.658234L499.907719,302.85L400.82,104.24Z" opacity="0" fill="#a3eb57"/><path id="e1IkXvsQpof31" d="M400.82,104.24L349.36,206.67l48.089999,96.179999-69.24.415277-23.14,45.850295l65.702267,15.135255L448.66,405.279999l26.714344-12.370939l75.881502,12.786216-20.693129-41.44445L499.907719,302.85L400.82,104.24Z" opacity="0" fill="#a3eb57"/><path id="e1IkXvsQpof32" d="M400.82,104.24L349.36,206.67l48.089999,96.179999-69.24.415277-23.14,45.850295l65.702267,15.135255-12.845137,41.029173h90.732871l13.86338,27.654511l88.732466-27.239234-20.693129-41.44445L499.907719,302.85L400.82,104.24Z" opacity="0" fill="#a3eb57"/><path id="e1IkXvsQpof33" d="M400.82,104.24L349.36,206.67l48.089999,96.179999-69.24.415277-23.14,45.850295-28.07,56.164428h80.92713h90.732871l13.86338,27.654511h53.694988l35.037478-27.239234-20.693129-41.44445L499.907719,302.85L400.82,104.24Z" opacity="0" fill="#a3eb57"/><path id="e1IkXvsQpof34" d="M400.82,104.24L349.36,206.67l48.089999,96.179999-69.24.415277-23.14,45.850295-28.07,56.164428h80.92713h90.732871l13.86338,27.654511l14.349683,28.685386l39.345305-28.685386h48.681466l-34.337117-68.683684L499.907719,302.85L400.82,104.24Z" opacity="0" fill="#a3eb57"/><path id="e1IkXvsQpof35" d="M400.82,104.24L349.36,206.67l48.089999,96.179999-69.24.415277-23.14,45.850295-28.07,56.164428h80.92713h90.732871l13.86338,27.654511l14.349683,28.685386h46.507455l41.519316-28.685386-34.337117-68.683684L499.907719,302.85L400.82,104.24Z" opacity="0" fill="#a3eb57"/><path id="e1IkXvsQpof36" d="M400.82,104.24L349.36,206.67l48.089999,96.179999-69.24.415277-23.14,45.850295-28.07,56.164428h80.92713h90.732871l13.86338,27.654511l14.349683,28.685386h102.338585L564.899834,432.93451l-34.337117-68.683684L499.907719,302.85L400.82,104.24Z" opacity="0" fill="#a3eb57"/><path id="e1IkXvsQpof37" d="M400.82,104.24L349.36,206.67l48.089999,96.179999-69.24.415277-23.14,45.850295-28.07,56.164428h80.92713h90.732871l13.86338,27.654511l14.349683,28.685386l60.724602,26.321247l41.613983-26.321247-14.311814-28.685386-34.337117-68.683684L499.907719,302.85L400.82,104.24Z" opacity="0" fill="#a3eb57"/><path id="e1IkXvsQpof38" d="M400.82,104.24L349.36,206.67l48.089999,96.179999-69.24.415277-23.14,45.850295-28.07,56.164428h80.92713h90.732871l13.86338,27.654511L500.53,509.019999l37.067665-21.078856l41.613983-26.321247-14.311814-28.685386-34.337117-68.683684L499.907719,302.85L400.82,104.24Z" opacity="0" fill="#a3eb57"/><path id="e1IkXvsQpof39" d="M400.82,104.24L349.36,206.67l48.089999,96.179999-69.24.415277-23.14,45.850295-28.07,56.164428h80.92713h90.732871l13.86338,27.654511L500.53,509.019999h56.539059l22.142589-47.400103-14.311814-28.685386-34.337117-68.683684L499.907719,302.85L400.82,104.24Z" opacity="0" fill="#a3eb57"/><path id="e1IkXvsQpof40" d="M400.82,104.24L349.36,206.67l48.089999,96.179999-69.24.415277-23.14,45.850295-28.07,56.164428h80.92713h90.732871l13.86338,27.654511L500.53,509.019999h56.539059h45.89094l-23.748351-47.400103-14.311814-28.685386-34.337117-68.683684L499.907719,302.85L400.82,104.24Z" opacity="0" fill="#a3eb57"/><path id="e1IkXvsQpof41" d="M400.82,104.24L349.36,206.67l31.866435,63.733862L400.82,104.24Z" opacity="0" fill="#a3eb57"/></g></g></g></svg>
