<?xml version="1.0" encoding="utf-8"?>
<!-- Generator: Adobe Illustrator 24.3.0, SVG Export Plug-In . SVG Version: 6.00 Build 0)  -->
<svg version="1.1" id="Layer_1" xmlns="http://www.w3.org/2000/svg" xmlns:xlink="http://www.w3.org/1999/xlink" x="0px" y="0px"
	 viewBox="0 0 1404.48 533.36" style="enable-background:new 0 0 1404.48 533.36;" xml:space="preserve">
<style type="text/css">
	.st0{fill:url(#SVGID_1_);}
	.st1{fill:url(#SVGID_2_);}
	.st2{fill:#30CE84;}
	.st3{fill:#A3EB57;}
	.st4{fill:#203040;}
	.st5{fill:#10202D;}
	.st6{fill:#0364AC;}
	.st7{fill:#02B15D;}
	.st8{fill:#394241;}
	.st9{fill:url(#SVGID_3_);}
	.st10{fill:url(#SVGID_4_);}
	.st11{fill:url(#SVGID_5_);}
	.st12{fill:url(#SVGID_6_);}
	.st13{fill:#4CA456;}
	.st14{opacity:0.35;fill:#02B15D;}
	.st15{fill:#FFFFFF;}
	.st16{fill:url(#SVGID_7_);}
	.st17{clip-path:url(#SVGID_9_);fill:url(#SVGID_10_);}
	.st18{fill:url(#SVGID_11_);}
	.st19{font-family:'Qualy-Bold';}
	.st20{font-size:209.1811px;}
	.st21{font-size:125.5087px;}
	.st22{fill:url(#SVGID_12_);}
	.st23{fill:url(#SVGID_13_);}
	.st24{opacity:0.59;clip-path:url(#SVGID_15_);fill:url(#SVGID_16_);}
	.st25{clip-path:url(#SVGID_15_);fill:url(#SVGID_17_);}
	.st26{clip-path:url(#SVGID_15_);fill:url(#SVGID_18_);}
	.st27{fill:url(#SVGID_19_);}
	.st28{fill:url(#SVGID_20_);}
	.st29{opacity:0.59;clip-path:url(#SVGID_22_);fill:url(#SVGID_23_);}
	.st30{clip-path:url(#SVGID_22_);fill:url(#SVGID_24_);}
	.st31{clip-path:url(#SVGID_22_);fill:url(#SVGID_25_);}
	.st32{fill:url(#SVGID_26_);}
	.st33{fill:url(#SVGID_27_);}
</style>
<g>
	<g>
		<g>
			<text transform="matrix(1 0 0 1 636.3564 394.984)"><tspan x="0" y="0" class="st4 st19 st20">4 Ace</tspan><tspan x="0" y="114.35" class="st4 st19 st21">IT Solutions</tspan></text>
		</g>
		<g>
			<g>
				<g>
					<g>
						<path class="st4" d="M810.81,341.16h-47.43V322.2h47.43V341.16z"/>
					</g>
				</g>
			</g>
		</g>
	</g>
	<g>
		<polygon class="st3" points="305.07,0 202.64,0 0,405.28 102.43,405.28 102.43,405.28 179.76,405.28 230.98,302.85 153.65,302.85 
					"/>
		<polygon class="st7" points="190.65,302.85 139.43,405.28 339.09,405.28 339.09,302.85 		"/>
		<polygon class="st3" points="602.96,509.02 400.57,104.24 400.82,103.74 400.32,103.74 298.39,103.74 297.89,103.74 
			298.14,104.24 95.75,509.02 198.19,509.02 349.36,206.67 397.45,302.85 328.21,302.85 277,405.28 448.66,405.28 500.53,509.02 		
			"/>
	</g>
</g>
</svg>
